<?xml version="1.0" standalone="no"?>
<!DOCTYPE svg PUBLIC "-//W3C//DTD SVG 20010904//EN"
 "http://www.w3.org/TR/2001/REC-SVG-20010904/DTD/svg10.dtd">
<svg version="1.0" xmlns="http://www.w3.org/2000/svg"
 width="256.000000pt" height="256.000000pt" viewBox="0 0 256.000000 256.000000"
 preserveAspectRatio="xMidYMid meet">
<metadata>
Created by potrace 1.11, written by Peter Selinger 2001-2013
</metadata>
<g transform="translate(0.000000,256.000000) scale(0.100000,-0.100000)"
fill="#000000" stroke="none">
<path d="M1080 2256 c-454 -101 -773 -483 -785 -941 -2 -70 2 -151 10 -195 64
-362 323 -666 665 -779 118 -38 207 -51 340 -47 122 4 144 6 225 27 372 95
665 415 729 799 5 33 3 31 -35 -29 -81 -125 -232 -251 -370 -307 -166 -68
-333 -76 -544 -28 -53 12 -191 80 -251 125 -207 152 -330 384 -338 639 -1 52
1 115 6 140 5 25 11 58 14 74 10 59 65 184 113 256 60 92 156 189 234 237 77
48 77 49 -13 29z"/>
<path d="M1779 1495 c-31 -62 -50 -89 -64 -91 -11 -2 -40 -6 -65 -9 -25 -3
-54 -8 -65 -10 -11 -2 -26 -4 -33 -4 -7 -1 19 -31 58 -68 77 -73 75 -69 56
-169 -2 -12 -7 -38 -10 -57 l-6 -36 38 17 c20 10 60 30 88 44 l50 27 83 -45
c46 -24 84 -44 85 -44 2 0 -4 43 -12 96 l-15 96 68 68 67 68 -28 6 c-16 3 -48
8 -72 11 -88 10 -90 12 -136 103 l-43 85 -44 -88z"/>
</g>
</svg>
