<?xml version="1.0" standalone="no"?>
<!DOCTYPE svg PUBLIC "-//W3C//DTD SVG 20010904//EN"
 "http://www.w3.org/TR/2001/REC-SVG-20010904/DTD/svg10.dtd">
<svg version="1.0" xmlns="http://www.w3.org/2000/svg"
 width="512.000000pt" height="512.000000pt" viewBox="0 0 512.000000 512.000000"
 preserveAspectRatio="xMidYMid meet">
<metadata>
Created by potrace 1.11, written by Peter Selinger 2001-2013
</metadata>
<g transform="translate(0.000000,512.000000) scale(0.100000,-0.100000)"
fill="#000000" stroke="none">
<path d="M2335 5109 c-774 -67 -1486 -495 -1917 -1154 -496 -756 -552 -1720
-147 -2534 199 -401 500 -741 876 -991 339 -225 682 -352 1113 -411 154 -22
496 -16 667 10 573 87 1070 342 1468 752 358 369 587 812 681 1318 130 702
-41 1422 -474 2001 -525 700 -1388 1084 -2267 1009z m-226 -1436 c-41 -123
-59 -235 -59 -378 0 -635 462 -1156 1097 -1236 172 -21 390 2 556 60 31 11 57
18 57 15 0 -3 -21 -46 -46 -96 -176 -339 -481 -571 -864 -654 -123 -27 -380
-25 -506 4 -496 113 -867 493 -965 987 -18 92 -18 368 0 460 75 381 313 698
656 877 49 26 93 48 97 48 4 0 -7 -39 -23 -87z"/>
</g>
</svg>
