<?xml version="1.0" encoding="utf-8"?>
<!-- Generator: Adobe Illustrator 18.0.0, SVG Export Plug-In . SVG Version: 6.00 Build 0)  -->
<!DOCTYPE svg PUBLIC "-//W3C//DTD SVG 1.1//EN" "http://www.w3.org/Graphics/SVG/1.1/DTD/svg11.dtd">
<svg version="1.1" xmlns="http://www.w3.org/2000/svg" xmlns:xlink="http://www.w3.org/1999/xlink" x="0px" y="0px"
	 viewBox="0 0 1400 980" enable-background="new 0 0 1400 980" xml:space="preserve">
<g id="Bakground">
</g>
<g id="Object">
	<rect x="0" y="-0.8" fill="#182A54" width="1400.9" height="980.8"/>
	<g>
		<defs>
			<rect id="SVGID_343_" x="0" y="-0.8" width="1400.9" height="980.8"/>
		</defs>
		<clipPath id="SVGID_1_">
			<use xlink:href="#SVGID_343_"  overflow="visible"/>
		</clipPath>
		<g clip-path="url(#SVGID_1_)">
			<rect y="-0.8" fill="#233765" width="1400" height="566"/>
			<path fill="#2D4578" d="M407.9,298.8c0,0,11.4-72.9,61.5-41c0,0,6.8-55.5,68.3-32.3c0,0-6.8-40.6,35.3-24.6
				c0,0,14.8-43.1,49-14.7c0,0,43.3-33.1,59.2,17c0,0,42.9-14.1,55.6,34c0,0,37.7-54.5,71.9-29.4c0,0,22.8-70.6,70.6-43.3
				c0,0,53.4-36.2,84.3,16.1c0,0,15.9-38.6,54.7,0v624.2H407.9V298.8z"/>
			<path fill="#2D4578" d="M-105.6,399.9c0,0,36.4-79.9,104.8-48c0,0,14.5-61.1,54.7-58.2s52.4,35.5,52.4,35.5s-5.2-39.8,39.7-35.5
				c0,0,6.1-64.8,61.8-55.6c0,0,21.5-70.4,83-26.1c0,0,25.1-49.1,79.7-26.3s45.3,82,45.3,82s79.9-20.5,93.6,47.8v515.1h-614.9V399.9
				z"/>
			<path fill="#334E85" d="M3.1,510.4c0,0,16.5-47.8,71.2-22.8c0,0,18.2-28.2,54.7-7.3c0,0,11.4-49.7,54.7-31.5
				c0,0,29.6-45.5,70.6-18.2c0,0,20.5-16.8,38.7-14.1c0,0,13.7-49.7,54.7-22.3c0,0,38.7-36.3,70.6-17s27.3,63.7,27.3,63.7
				s47.6-51.7,65.1-9.8c0,0,46.5-19,69.3,27.8c0,0,79.7-23.8,88.8,51.4v485.5H3.1V510.4z"/>
			<path fill="#2D4578" d="M835.2,220.7c0,0,16-47.8,68.9-22.8c0,0,17.6-28.2,52.9-7.3c0,0,11-49.7,52.9-31.5
				c0,0,28.7-45.5,68.3-18.2c0,0,19.8-16.8,37.5-14.1c0,0,13.2-49.7,52.9-22.3c0,0,37.5-36.3,68.3-17s26.5,63.7,26.5,63.7
				s46.1-51.7,63-9.8c0,0,45-19,67.1,27.8c0,0,77.2-23.8,86,51.4v485.5H835.2V220.7z"/>
			<path fill="#334E85" d="M-105.6,401c0,0,7.4-38.7,47-38.7c0,0,28.2-56.9,80.6-15.9c0,0,54.7-24.9,77.4,30.8
				c0,0,56.9-18,77.4,39.3c0,0,50.1-18.1,77.4,42.4v536.8h-359.8V401z"/>
			<path fill="#334E85" d="M438.7,565.2c0,0,36.4-79.9,104.8-48c0,0,14.5-61.1,54.7-58.2s52.4,35.5,52.4,35.5s-5.2-39.8,39.7-35.5
				c0,0,6.1-64.8,61.8-55.6c0,0,21.5-70.4,83-26.1c0,0,25.1-49.1,79.7-26.3c54.7,22.8,45.3,82,45.3,82s79.9-20.5,93.6,47.8v515.1
				H438.7V565.2z"/>
			<path fill="#334E85" d="M869.1,489.9c0,0,11.4-72.9,61.5-41c0,0,6.8-55.5,68.3-32.3c0,0-6.8-40.6,35.3-24.6
				c0,0,14.8-43.1,49-14.7c0,0,43.3-33.1,59.2,17c0,0,42.9-14.1,55.6,34c0,0,37.7-54.5,71.9-29.4c0,0,22.8-70.6,70.6-43.3
				c0,0,53.4-36.2,84.3,16.1c0,0,15.9-38.6,54.7,0v624.2H869.1V489.9z"/>
			<path fill="#FFFFFF" d="M1207.7,314.6c-32.6,0-59-26.4-59-59c0-20.4,10.4-38.5,26.2-49c-30.3,8.1-52.6,35.6-52.6,68.4
				c0,39.1,31.7,70.9,70.9,70.9c39.1,0,70.9-31.7,70.9-70.9c0-0.5-0.1-1.1-0.1-1.6C1256.4,297.3,1234.1,314.6,1207.7,314.6z"/>
			<g>
				<path fill="#182A54" d="M1303.6,671.5h-103.5c0,0-12-58.6,21.1-92.2c33-33.6,75.4-46.1,75.9-49.5c0,0-4.1-6.5,1.5-14.7
					c-0.9-1.5-1.5-3.4-1.5-5.4c0-3.6,1.8-6.7,4.2-8c-2.5-0.6-4.2-2-4.2-3.8c0-1.8,2-3.4,4.7-3.9v-5c-5.4-0.3-10.1-3.5-12.5-8
					c2.5,2,5.6,3.3,9,3.3c7.8,0,14.2-6.4,14.2-14.2c0-4.5-2.2-8.5-5.5-11.1c6.4,1.9,11,7.7,11,14.7c0,7.5-5.4,13.7-12.5,15.1v5.2
					c2.7,0.5,4.7,2,4.7,3.9c0,1.7-1.8,3.2-4.2,3.8c2.5,1.2,4.2,4.3,4.2,8c0,2.1-0.6,4-1.5,5.4c5.6,8.2,1.5,14.7,1.5,14.7
					c0.4,3.4,42.8,15.9,75.9,49.5c33,33.6,21.1,92.2,21.1,92.2H1303.6z"/>
				<path fill="#182A54" d="M1034.2,672.6h-73.4c0,0-2.6-17.4,1.7-31.6c4.3-14.2,44.1-32.7,57.2-40.7c13.1-8,14.5-26.5,14.5-26.5
					s1.4,18.5,14.5,26.5c13.1,8,53,26.5,57.2,40.7c4.3,14.2,1.7,31.6,1.7,31.6H1034.2z"/>
				<path fill="#182A54" d="M3.1,781v68.8v146.1h1497.7V849.7v-42.8c0-2.1-1-4-2.7-5.2l-4.7-3.2v-27.3h-2.9v-25.2l8-18.4h-9.4v-63.8
					l6.4-9h-8.9v-35.7l5.4-4.7h-10.2v-25.2c1.1-1.5,2.5-3.2,4-4.2c3.3-2.3,4.6-4.1,4.6-8.5c0-4.4-2.8-6.4-6-8.3
					c-1-0.6-1.9-1.4-2.6-2.1v-18.8c3.3-1.7,5.6-5.1,5.6-9.1c0-4.6-3.1-8.5-7.3-9.7c2.2,1.7,3.6,4.4,3.6,7.4c0,5.2-4.2,9.4-9.4,9.4
					c-2.3,0-4.4-0.8-6-2.2c1.7,3.2,5.1,5.3,8.9,5.3c0.2,0,0.4,0,0.6-0.1v17.8c-0.7,0.7-1.5,1.5-2.6,2.1c-3.1,1.9-6,3.8-6,8.3
					c0,4.4,1.3,6.3,4.6,8.5c1.5,1.1,2.9,2.7,4,4.2v25.2h-10.2l5.4,4.7v35.7h-8.9l6.4,9v63.8h-9.4l8,18.4h-0.1v25.2h-2.8v27.3
					l-4.7,3.2c-1.7,1.2-2.7,3.1-2.7,5.2v12h-10.5v-23.3h-18.2v-16.5H1406v-93.4h8.4v-10.2h-221.5v10.2h8.2v17.1h-10.8v10.7h-18.8
					V725h-34.2v-9.2h-13.1v-17.2h-15.7V733h-10.9v-43.9h4.5v-5.4h6.4v-6.8H960v6.8h4.5v5.4h4.5V733h-14.1v16.2h5.1v13.3h-11.8V774
					h-50.8l-0.1-0.1v-27.3h-2.9v-25.2l8-18.4h-9.4v-63.8l6.4-9h-8.9v-35.7l5.4-4.7h-10.2v-25.2c1.1-1.5,2.5-3.2,4-4.2
					c3.3-2.3,4.6-4.1,4.6-8.5c0-4.4-2.8-6.4-6-8.3c-1-0.6-1.9-1.4-2.6-2.1v-18.8c3.3-1.7,5.6-5.1,5.6-9.1c0-4.6-3.1-8.5-7.3-9.7
					c2.2,1.7,3.6,4.4,3.6,7.4c0,5.2-4.2,9.4-9.4,9.4c-2.3,0-4.4-0.8-6-2.2c1.7,3.2,5.1,5.3,8.9,5.3c0.2,0,0.4,0,0.6-0.1v17.8
					c-0.7,0.7-1.5,1.5-2.6,2.1c-3.1,1.9-6,3.8-6,8.3c0,4.4,1.3,6.3,4.6,8.5c1.5,1.1,2.9,2.7,4,4.2v25.2h-10.2l5.4,4.7v35.7h-8.9
					l6.4,9V703h-9.4l8,18.4h-0.1v25.2h-2.8H866c1-11.4,0.8-34.1-13.7-48.9c-20-20.4-45.8-28-46.1-30.1c0,0,2.5-3.9-0.9-8.9
					c0.6-0.9,0.9-2,0.9-3.3c0-2.2-1.1-4.1-2.6-4.8c1.5-0.4,2.6-1.2,2.6-2.3c0-1.1-1.2-2-2.9-2.3v-3.2c4.3-0.8,7.6-4.6,7.6-9.2
					c0-4.2-2.8-7.8-6.7-8.9c2,1.6,3.3,4,3.3,6.7c0,4.8-3.9,8.6-8.6,8.6c-2.1,0-4-0.8-5.5-2c1.5,2.7,4.3,4.6,7.6,4.8v3.1
					c-1.6,0.3-2.9,1.2-2.9,2.3c0,1.1,1.1,1.9,2.6,2.3c-1.5,0.7-2.6,2.6-2.6,4.8c0,1.3,0.4,2.4,0.9,3.3c-3.4,5-0.9,8.9-0.9,8.9
					c-0.3,2-25.2,9.5-45.1,29.2v-23.9l9.4-21.6h-11V576l7.5-10.6h-10.5v-42l6.3-5.5h-12.1v-29.7c1.3-1.8,2.9-3.7,4.7-5
					c3.9-2.7,5.4-4.9,5.4-10.1c0-5.2-3.4-7.5-7-9.7c-1.2-0.7-2.2-1.6-3-2.5v-22.2c3.9-2,6.6-6,6.6-10.7c0-5.5-3.7-10-8.6-11.5
					c2.6,2,4.3,5.2,4.3,8.7c0,6.1-5,11.1-11.1,11.1c-2.7,0-5.1-1-7.1-2.6c2,3.7,6,6.3,10.5,6.3c0.2,0,0.5-0.1,0.7-0.1v20.9
					c-0.8,0.8-1.8,1.7-3,2.5c-3.7,2.2-7,4.5-7,9.7c0,5.2,1.5,7.4,5.4,10.1c1.8,1.3,3.4,3.2,4.7,5v29.7H726l6.3,5.5v42h-10.5
					l7.5,10.6v75.2h-11l9.4,21.6h-0.1v18.6c-2.4-13.5-7.8-27.7-18.7-38.8c-29.2-29.7-66.8-40.8-67.1-43.8c0,0,3.6-5.7-1.4-13
					c0.8-1.3,1.4-3,1.4-4.8c0-3.2-1.6-6-3.8-7c2.2-0.5,3.8-1.8,3.8-3.3c0-1.6-1.8-3-4.2-3.4v-4.6c6.3-1.2,11.1-6.7,11.1-13.4
					c0-6.2-4.1-11.3-9.8-13c2.9,2.3,4.8,5.8,4.8,9.8c0,6.9-5.6,12.6-12.6,12.6c-3,0-5.8-1.1-8-2.9c2.2,4,6.3,6.8,11.1,7v4.4
					c-2.4,0.4-4.2,1.8-4.2,3.4c0,1.5,1.6,2.8,3.8,3.3c-2.2,1.1-3.8,3.8-3.8,7c0,1.8,0.5,3.5,1.4,4.8c-5,7.3-1.4,13-1.4,13
					c-0.4,3-37.9,14.1-67.1,43.8c-6.4,6.5-10.9,14.1-14,22h-13.3v-15.4h-2.9v-25.2l8-18.4h-9.4v-63.8l6.4-9h-8.9v-35.7l5.4-4.7
					h-10.2v-25.2c1.1-1.5,2.5-3.2,4-4.2c3.3-2.3,4.6-4.1,4.6-8.5c0-4.4-2.8-6.4-6-8.3c-1-0.6-1.9-1.4-2.6-2.1v-18.8
					c3.3-1.7,5.6-5.1,5.6-9.1c0-4.6-3.1-8.5-7.3-9.7c2.2,1.7,3.6,4.4,3.6,7.4c0,5.2-4.2,9.4-9.4,9.4c-2.3,0-4.4-0.8-6-2.2
					c1.7,3.2,5.1,5.3,8.9,5.3c0.2,0,0.4,0,0.6-0.1v17.8c-0.7,0.7-1.5,1.5-2.6,2.1c-3.1,1.9-6,3.8-6,8.3c0,4.4,1.3,6.3,4.6,8.5
					c1.5,1.1,2.9,2.7,4,4.2v25.2h-10.2l5.4,4.7v35.7h-8.9l6.4,9v63.8h-9.4l8,18.4h-0.1v25.2h-2.8v15.4H493l7.6,19.4
					c-14-8.6-25.7-12.6-25.9-14c0,0,2.6-4.1-1-9.3c0.6-0.9,1-2.1,1-3.4c0-2.3-1.1-4.3-2.7-5c1.6-0.4,2.7-1.3,2.7-2.4
					c0-1.2-1.3-2.1-3-2.4v-3.3c4.5-0.8,7.9-4.8,7.9-9.5c0-4.4-3-8.1-7-9.3c2.1,1.6,3.5,4.2,3.5,7c0,5-4,9-9,9
					c-2.2,0-4.1-0.8-5.7-2.1c1.6,2.9,4.5,4.8,7.9,5v3.2c-1.7,0.3-3,1.3-3,2.4c0,1.1,1.1,2,2.7,2.4c-1.6,0.8-2.7,2.7-2.7,5
					c0,1.3,0.4,2.5,1,3.4c-3.6,5.2-1,9.3-1,9.3c-0.3,2.2-27.1,10.1-48,31.4c-8.9,9-12.6,20.9-14,31.5h-7v-0.9h-2.9v-25.2l8-18.4
					h-9.4v-63.8l6.4-9h-8.9v-35.7l5.4-4.7h-10.2v-25.2c1.1-1.5,2.5-3.2,4-4.2c3.3-2.3,4.6-4.1,4.6-8.5c0-4.4-2.8-6.4-6-8.3
					c-1-0.6-1.9-1.4-2.6-2.1v-18.8c3.3-1.7,5.6-5.1,5.6-9.1c0-4.6-3.1-8.5-7.3-9.7c2.2,1.7,3.6,4.4,3.6,7.4c0,5.2-4.2,9.4-9.4,9.4
					c-2.3,0-4.4-0.8-6-2.2c1.7,3.2,5.1,5.3,8.9,5.3c0.2,0,0.4,0,0.6-0.1V537c-0.7,0.7-1.5,1.5-2.6,2.1c-3.1,1.9-6,3.8-6,8.3
					c0,4.4,1.3,6.3,4.6,8.5c1.5,1.1,2.9,2.7,4,4.2v25.2h-10.2l5.4,4.7v35.7H368l6.4,9v63.8H365l8,18.4h-0.1v25.2h-2.8v27.3l-4.7,3.2
					c-1.7,1.2-2.7,3.1-2.7,5.2v25.7h-20.1c0,0,8.5-17.5-15.8-24.8c-24.3-7.3-35-22.2-35-22.2s-3.7,5-8,9.3v-49.4l5.7-10.2v-54.1
					l-34.2,19.9v-70.6h5.7v-26.2l-17.6,8v-33.5h11.9v-8.1c0,0-3.9-12.7-19.6-16.5c-4.8-1.1-7.7-19.4-7.7-19.4s-2.9,18.2-7.7,19.4
					c-15.7,3.8-19.6,16.5-19.6,16.5v8.1h11.9v33.5l-17.6-8v26.2h5.7v70.6l-34.2-19.9v54.1l5.7,10.2v64.9h-3.3h-12.4v-10.2h-5.1
					c-0.9-5-2.6-10.8-5.4-15.5l2.9-6.7h-9.4v-63.8l6.4-9h-8.9v-35.7l5.4-4.7h-10.2v-25.2c1.1-1.5,2.5-3.2,4-4.2
					c3.3-2.3,4.6-4.1,4.6-8.5c0-4.4-2.8-6.4-6-8.3c-1-0.6-1.9-1.4-2.6-2.1v-18.8c3.3-1.7,5.6-5.1,5.6-9.1c0-4.6-3.1-8.5-7.3-9.7
					c2.2,1.7,3.6,4.4,3.6,7.4c0,5.2-4.2,9.4-9.4,9.4c-2.3,0-4.4-0.8-6-2.2c1.7,3.2,5.1,5.3,8.9,5.3c0.2,0,0.4,0,0.6-0.1v17.8
					c-0.7,0.7-1.5,1.5-2.6,2.1c-3.1,1.9-6,3.8-6,8.3c0,4.4,1.3,6.3,4.6,8.5c1.5,1.1,2.9,2.7,4,4.2v25.2h-10.2l5.4,4.7v35.7h-8.9
					l6.4,9v54.6c-13.1-6.1-27.4-12.5-30.9-16.4c-5.6,6-37.2,18.4-49.6,25.6c-7.1,4.1-10.4,14.3-11.8,22.2h-5.6v9.8H3.1z
					 M515.8,634.1h4v25.2h-4V634.1z M526.1,572.7h-8v-18.2h8V572.7z M526.1,600.3h-8V581h8V600.3z M528.3,659.3h-3.9v-25.2h3.9
					V659.3z M387.7,655.5h-8v-18.2h8V655.5z M381.4,716.9v25.2h-4v-25.2H381.4z M387.7,683.2h-8v-19.4h8V683.2z M389.9,742.1H386
					v-25.2h3.9V742.1z M1083.7,830.3v19.4h-17.8v-19.4c0,0-3.6-1.2-2.9-7.8c0.6-5.7,9.2-7.9,11.8-10.8c2.6,2.9,11.2,5.1,11.8,10.8
					C1087.3,829.1,1083.7,830.3,1083.7,830.3z M1046.5,816.4v33.3H1020v-33.3c0,0-5.3-1.7-4.3-11.5c0.9-8.5,13.7-11.7,17.5-16
					c3.8,4.3,16.6,7.5,17.5,16C1051.9,814.7,1046.5,816.4,1046.5,816.4z M1003,830.3v19.4h-17.8v-19.4c0,0-3.6-1.2-2.9-7.8
					c0.6-5.7,9.2-7.9,11.8-10.8c2.6,2.9,11.2,5.1,11.8,10.8C1006.6,829.1,1003,830.3,1003,830.3z M752.7,806v17.9h-6h-6V806
					c0,0-2.4-0.8-1.9-5.3c0.4-3.9,6.2-5.4,8-7.3c1.8,1.9,7.6,3.4,8,7.3C755.1,805.3,752.7,806,752.7,806z M778.3,806v17.9h-6h-6V806
					c0,0-2.4-0.8-1.9-5.3c0.4-3.9,6.2-5.4,8-7.3c1.8,1.9,7.6,3.4,8,7.3C780.8,805.3,778.3,806,778.3,806z M804,806v17.9h-6h-6V806
					c0,0-2.4-0.8-1.9-5.3c0.4-3.9,6.2-5.4,8-7.3c1.8,1.9,7.6,3.4,8,7.3C806.4,805.3,804,806,804,806z M829.6,806v17.9h-6h-6V806
					c0,0-2.4-0.8-1.9-5.3c0.4-3.9,6.2-5.4,8-7.3c1.8,1.9,7.6,3.4,8,7.3C832,805.3,829.6,806,829.6,806z M855.2,806v17.9h-6h-6V806
					c0,0-2.4-0.8-1.9-5.3c0.4-3.9,6.2-5.4,8-7.3c1.8,1.9,7.6,3.4,8,7.3C857.6,805.3,855.2,806,855.2,806z M425.3,806v17.9h-6h-6V806
					c0,0-2.4-0.8-1.9-5.3c0.4-3.9,6.2-5.4,8-7.3c1.8,1.9,7.6,3.4,8,7.3C427.8,805.3,425.3,806,425.3,806z M451,806v17.9h-6h-6V806
					c0,0-2.4-0.8-1.9-5.3c0.4-3.9,6.2-5.4,8-7.3c1.8,1.9,7.6,3.4,8,7.3C453.4,805.3,451,806,451,806z M476.6,806v17.9h-6h-6V806
					c0,0-2.4-0.8-1.9-5.3c0.4-3.9,6.2-5.4,8-7.3c1.8,1.9,7.6,3.4,8,7.3C479,805.3,476.6,806,476.6,806z M502.2,806v17.9h-6h-6V806
					c0,0-2.4-0.8-1.9-5.3c0.4-3.9,6.2-5.4,8-7.3c1.8,1.9,7.6,3.4,8,7.3C504.6,805.3,502.2,806,502.2,806z M527.8,806v17.9h-6h-6V806
					c0,0-2.4-0.8-1.9-5.3c0.4-3.9,6.2-5.4,8-7.3c1.8,1.9,7.6,3.4,8,7.3C530.3,805.3,527.8,806,527.8,806z M580.3,800v23.9h-8.1h-8.1
					V800c0,0-3.3-1-2.6-7c0.6-5.2,8.3-7.2,10.7-9.8c2.3,2.6,10.1,4.6,10.7,9.8C583.6,799,580.3,800,580.3,800z M547.9,772.4v-5.2
					H724v5.2H547.9z M611.5,800v23.9h-8.1h-8.1V800c0,0-3.3-1-2.6-7c0.6-5.2,8.3-7.2,10.7-9.8c2.3,2.6,10.1,4.6,10.7,9.8
					C614.7,799,611.5,800,611.5,800z M642.7,800v23.9h-8.1h-8.1V800c0,0-3.3-1-2.6-7c0.6-5.2,8.3-7.2,10.7-9.8
					c2.3,2.6,10.1,4.6,10.7,9.8C645.9,799,642.7,800,642.7,800z M673.8,800v23.9h-8.1h-8.1V800c0,0-3.3-1-2.6-7
					c0.6-5.2,8.3-7.2,10.7-9.8c2.3,2.6,10.1,4.6,10.7,9.8C677.1,799,673.8,800,673.8,800z M705,800v23.9H697h-8.1V800
					c0,0-3.3-1-2.6-7c0.6-5.2,8.3-7.2,10.7-9.8c2.3,2.6,10.1,4.6,10.7,9.8C708.3,799,705,800,705,800z M547.9,757.1v-5.2H724v5.2
					H547.9z M733,672.8h4.7v24.8H733V672.8z M745.1,600.6h-9.4v-21.5h9.4V600.6z M745.1,633.1h-9.4v-22.8h9.4V633.1z M747.7,672.8
					v24.8h-4.6v-24.8H747.7z M877.3,721.4h4v25.2h-4V721.4z M887.6,660h-8v-18.2h8V660z M887.6,687.6h-8v-19.4h8V687.6z
					 M889.8,746.5h-3.9v-25.2h3.9V746.5z M1060.6,689.1V733h-24.1v-43.9h4.5v-5.4h15.2v5.4H1060.6z M1010.4,689.1v-5.4h15.2v5.4h4.5
					V733H1006v-43.9H1010.4z M979.9,689.1v-5.4h15.2v5.4h4.5V733h-24.1v-43.9H979.9z M1091.1,733H1067v-43.9h4.5v-5.4h15.2v5.4h4.5
					V733z M1188.5,816.4v33.3H1162v-33.3c0,0-5.3-1.7-4.3-11.5c0.9-8.5,13.7-11.7,17.5-16c3.8,4.3,16.6,7.5,17.5,16
					C1193.8,814.7,1188.5,816.4,1188.5,816.4z M1215,788.9c3.8,4.3,16.6,7.5,17.5,16c1.1,9.8-4.3,11.5-4.3,11.5v33.3h-26.5v-33.3
					c0,0-5.3-1.7-4.3-11.5C1198.4,796.4,1211.1,793.1,1215,788.9z M1387.1,816.4v33.3h-26.5v-33.3c0,0-5.3-1.7-4.3-11.5
					c0.9-8.5,13.7-11.7,17.5-16c3.8,4.3,16.6,7.5,17.5,16C1392.4,814.7,1387.1,816.4,1387.1,816.4z M1384.4,712.8V733h-8.5h-8.5
					v-20.3c0,0-3.4-0.9-2.8-6c0.6-4.4,8.8-6.1,11.3-8.3c2.5,2.2,10.7,3.9,11.3,8.3C1387.8,711.9,1384.4,712.8,1384.4,712.8z
					 M1348.9,712.8V733h-8.5h-8.5v-20.3c0,0-3.4-0.9-2.8-6c0.6-4.4,8.8-6.1,11.3-8.3c2.5,2.2,10.7,3.9,11.3,8.3
					C1352.4,711.9,1348.9,712.8,1348.9,712.8z M1347.4,816.4v33.3h-26.5v-33.3c0,0-5.3-1.7-4.3-11.5c0.9-8.5,13.7-11.7,17.5-16
					c3.8,4.3,16.6,7.5,17.5,16C1352.7,814.7,1347.4,816.4,1347.4,816.4z M1313.5,712.8V733h-8.5h-8.5v-20.3c0,0-3.4-0.9-2.8-6
					c0.6-4.4,8.8-6.1,11.3-8.3c2.5,2.2,10.7,3.9,11.3,8.3C1316.9,711.9,1313.5,712.8,1313.5,712.8z M1307.6,816.4v33.3h-26.5v-33.3
					c0,0-5.3-1.7-4.3-11.5c0.9-8.5,13.7-11.7,17.5-16c3.8,4.3,16.6,7.5,17.5,16C1313,814.7,1307.6,816.4,1307.6,816.4z M1278,712.8
					V733h-8.5h-8.5v-20.3c0,0-3.4-0.9-2.8-6c0.6-4.4,8.8-6.1,11.3-8.3c2.5,2.2,10.7,3.9,11.3,8.3
					C1281.5,711.9,1278,712.8,1278,712.8z M1267.9,816.4v33.3h-26.5v-33.3c0,0-5.3-1.7-4.3-11.5c0.9-8.5,13.7-11.7,17.5-16
					c3.8,4.3,16.6,7.5,17.5,16C1273.3,814.7,1267.9,816.4,1267.9,816.4z M1242.6,712.8V733h-8.5h-8.5v-20.3c0,0-3.4-0.9-2.8-6
					c0.6-4.4,8.8-6.1,11.3-8.3c2.5,2.2,10.7,3.9,11.3,8.3C1246,711.9,1242.6,712.8,1242.6,712.8z M1483.7,684.6h-8v-18.2h8V684.6z
					 M1477.5,745.9v25.2h-4v-25.2H1477.5z M1483.7,712.2h-8v-19.4h8V712.2z M1485.9,771.1h-3.9v-25.2h3.9V771.1z M1486.9,837.5
					h-14.2v-19.6c0-3.9,3.2-7.1,7.1-7.1s7.1,3.2,7.1,7.1V837.5z M376.6,788.8c0-3.9,3.2-7.1,7.1-7.1s7.1,3.2,7.1,7.1v19.6h-14.2
					V788.8z M235.8,755.2c0.8-7.8,12.5-10.8,16-14.7c3.5,3.9,15.2,6.9,16,14.7c1,9-3.9,10.6-3.9,10.6v36h-12.1h-12.1v-36
					C239.7,765.8,234.8,764.2,235.8,755.2z M227.9,665.9h-11.6v-34.4c0,0-4.7-1.5-3.7-10.1c0.8-7.4,12-10.3,15.3-14
					c3.4,3.7,14.5,6.6,15.3,14c0.9,8.6-3.7,10.1-3.7,10.1v34.4H227.9z M187.1,755.2c0.8-7.8,12.5-10.8,16-14.7
					c3.5,3.9,15.2,6.9,16,14.7c1,9-3.9,10.6-3.9,10.6v36h-12.1H191v-36C191,765.8,186.2,764.2,187.1,755.2z M140.4,802.7
					c0.6-7.1,9.4-9.8,12.1-13.3c2.7,3.5,11.4,6.2,12.1,13.3c0.7,8.2-2.9,9.6-2.9,9.6v37.5h-18.3v-37.5
					C143.4,812.2,139.7,810.8,140.4,802.7z M134.1,705.9h-8v-18.2h8V705.9z M134.1,733.6h-8v-19.4h8V733.6z M108,802.7
					c0.6-7.1,9.4-9.8,12.1-13.3c2.7,3.5,11.4,6.2,12.1,13.3c0.7,8.2-2.9,9.6-2.9,9.6v37.5h-18.3v-37.5
					C110.9,812.2,107.2,810.8,108,802.7z M75.5,802.7c0.6-7.1,9.4-9.8,12.1-13.3c2.7,3.5,11.4,6.2,12.1,13.3
					c0.7,8.2-2.9,9.6-2.9,9.6v37.5H78.5v-37.5C78.5,812.2,74.8,810.8,75.5,802.7z M43.1,802.7c0.6-7.1,9.4-9.8,12.1-13.3
					c2.7,3.5,11.4,6.2,12.1,13.3c0.7,8.2-2.9,9.6-2.9,9.6v37.5H46v-37.5C46,812.2,42.3,810.8,43.1,802.7z M10.6,802.7
					c0.6-7.1,9.4-9.8,12.1-13.3c2.7,3.5,11.4,6.2,12.1,13.3c0.7,8.2-2.9,9.6-2.9,9.6v37.5H13.5v-37.5
					C13.5,812.2,9.9,810.8,10.6,802.7z"/>
			</g>
			<g>
				<path fill="#05153C" d="M138.5,803.6H242c0,0,12-58.6-21.1-92.2c-33-33.6-75.4-46.1-75.9-49.5c0,0,4.1-6.5-1.5-14.7
					c0.9-1.5,1.5-3.4,1.5-5.4c0-3.6-1.8-6.7-4.2-8c2.5-0.6,4.2-2,4.2-3.8c0-1.8-2-3.4-4.7-3.9v-5c5.4-0.3,10.1-3.5,12.5-8
					c-2.5,2-5.6,3.3-9,3.3c-7.8,0-14.2-6.4-14.2-14.2c0-4.5,2.2-8.5,5.5-11.1c-6.4,1.9-11,7.7-11,14.7c0,7.5,5.4,13.7,12.5,15.1v5.2
					c-2.7,0.5-4.7,2-4.7,3.9c0,1.7,1.8,3.2,4.2,3.8c-2.5,1.2-4.2,4.3-4.2,8c0,2.1,0.6,4,1.5,5.4c-5.6,8.2-1.5,14.7-1.5,14.7
					c-0.4,3.4-42.8,15.9-75.9,49.5C23,744.9,35,803.6,35,803.6H138.5z"/>
				<path fill="#05153C" d="M407.9,804.7h73.4c0,0,2.6-17.4-1.7-31.6c-4.3-14.2-44.1-32.7-57.2-40.7c-13.1-8-14.5-26.5-14.5-26.5
					s-1.4,18.5-14.5,26.5c-13.1,8-53,26.5-57.2,40.7c-4.3,14.2-1.7,31.6-1.7,31.6H407.9z"/>
				<path fill="#05153C" d="M1419.5,913v-9.8h-5.6c-1.5-7.9-4.7-18.1-11.8-22.2c-12.5-7.3-44.1-19.6-49.6-25.6
					c-3.6,3.8-17.8,10.3-30.9,16.4v-54.6l6.4-9h-8.9v-35.7l5.4-4.7h-10.2v-25.2c1.1-1.5,2.5-3.2,4-4.2c3.3-2.3,4.6-4.1,4.6-8.5
					c0-4.4-2.8-6.4-6-8.3c-1-0.6-1.9-1.4-2.6-2.1v-17.8c0.2,0,0.4,0.1,0.6,0.1c3.9,0,7.2-2.2,8.9-5.3c-1.6,1.4-3.7,2.2-6,2.2
					c-5.2,0-9.4-4.2-9.4-9.4c0-3,1.4-5.7,3.6-7.4c-4.2,1.3-7.3,5.1-7.3,9.7c0,4,2.3,7.4,5.6,9.1v18.8c-0.7,0.7-1.5,1.5-2.6,2.1
					c-3.1,1.9-6,3.8-6,8.3c0,4.4,1.3,6.3,4.6,8.5c1.5,1.1,2.9,2.7,4,4.2v25.2h-10.2l5.4,4.7v35.7h-8.9l6.4,9V881h-9.4l2.9,6.7
					c-2.8,4.7-4.5,10.5-5.4,15.5h-5.1v10.2h-12.4h-3.3v-64.9l5.7-10.2v-54.1l-34.2,19.9v-70.6h5.7v-26.2l-17.6,8v-33.5h11.9v-8.1
					c0,0-3.9-12.7-19.6-16.5c-4.8-1.1-7.7-19.4-7.7-19.4s-2.9,18.2-7.7,19.4c-15.7,3.8-19.6,16.5-19.6,16.5v8.1h11.9v33.5l-17.6-8
					v26.2h5.7v70.6l-34.2-19.9v54.1l5.7,10.2V898c-4.2-4.3-8-9.3-8-9.3s-10.7,14.9-35,22.2c-24.3,7.3-15.8,24.8-15.8,24.8h-20.1V910
					c0-2.1-1-4-2.7-5.2l-4.7-3.2v-27.3h-2.8V849h-0.1l8-18.4h-9.4v-63.8l6.4-9h-8.9v-35.7l5.4-4.7h-10.2v-25.2
					c1.1-1.5,2.5-3.2,4-4.2c3.3-2.3,4.6-4.1,4.6-8.5c0-4.4-2.8-6.4-6-8.3c-1-0.6-1.9-1.4-2.6-2.1v-17.8c0.2,0,0.4,0.1,0.6,0.1
					c3.9,0,7.2-2.2,8.9-5.3c-1.6,1.4-3.7,2.2-6,2.2c-5.2,0-9.4-4.2-9.4-9.4c0-3,1.4-5.7,3.6-7.4c-4.2,1.3-7.3,5.1-7.3,9.7
					c0,4,2.3,7.4,5.6,9.1v18.8c-0.7,0.7-1.5,1.5-2.6,2.1c-3.1,1.9-6,3.8-6,8.3c0,4.4,1.3,6.3,4.6,8.5c1.5,1.1,2.9,2.7,4,4.2v25.2
					h-10.2l5.4,4.7v35.7h-8.9l6.4,9v63.8h-9.4l8,18.4v25.2h-2.9v0.9h-7c-1.4-10.7-5.1-22.5-14-31.5c-20.9-21.3-47.7-29.2-48-31.4
					c0,0,2.6-4.1-1-9.3c0.6-0.9,1-2.1,1-3.4c0-2.3-1.1-4.3-2.7-5c1.6-0.4,2.7-1.3,2.7-2.4c0-1.2-1.3-2.1-3-2.4v-3.2
					c3.4-0.2,6.4-2.1,7.9-5c-1.6,1.3-3.5,2.1-5.7,2.1c-5,0-9-4-9-9c0-2.9,1.4-5.4,3.5-7c-4,1.2-7,4.9-7,9.3c0,4.8,3.4,8.7,7.9,9.5
					v3.3c-1.7,0.3-3,1.3-3,2.4c0,1.1,1.1,2,2.7,2.4c-1.6,0.8-2.7,2.7-2.7,5c0,1.3,0.4,2.5,1,3.4c-3.6,5.2-1,9.3-1,9.3
					c-0.2,1.4-11.9,5.4-25.9,14l7.6-19.4h-15.4v-15.4h-2.8v-25.2h-0.1l8-18.4h-9.4v-63.8l6.4-9h-8.9v-35.7l5.4-4.7h-10.2v-25.2
					c1.1-1.5,2.5-3.2,4-4.2c3.3-2.3,4.6-4.1,4.6-8.5c0-4.4-2.8-6.4-6-8.3c-1-0.6-1.9-1.4-2.6-2.1v-17.8c0.2,0,0.4,0.1,0.6,0.1
					c3.9,0,7.2-2.2,8.9-5.3c-1.6,1.4-3.7,2.2-6,2.2c-5.2,0-9.4-4.2-9.4-9.4c0-3,1.4-5.7,3.6-7.4c-4.2,1.3-7.3,5.1-7.3,9.7
					c0,4,2.3,7.4,5.6,9.1v18.8c-0.7,0.7-1.5,1.5-2.6,2.1c-3.1,1.9-6,3.8-6,8.3c0,4.4,1.3,6.3,4.6,8.5c1.5,1.1,2.9,2.7,4,4.2v25.2
					h-10.2l5.4,4.7V675h-8.9l6.4,9v63.8h-9.4l8,18.4v25.2h-2.9v15.4h-13.3c-3.1-7.9-7.6-15.4-14-22c-29.2-29.7-66.8-40.8-67.1-43.8
					c0,0,3.6-5.7-1.4-13c0.8-1.3,1.4-3,1.4-4.8c0-3.2-1.6-6-3.8-7c2.2-0.5,3.8-1.8,3.8-3.3c0-1.6-1.8-3-4.2-3.4v-4.4
					c4.8-0.3,8.9-3.1,11.1-7c-2.2,1.8-4.9,2.9-8,2.9c-6.9,0-12.6-5.6-12.6-12.6c0-4,1.9-7.5,4.8-9.8c-5.6,1.7-9.8,6.8-9.8,13
					c0,6.7,4.8,12.2,11.1,13.4v4.6c-2.4,0.4-4.2,1.8-4.2,3.4c0,1.5,1.6,2.8,3.8,3.3c-2.2,1.1-3.8,3.8-3.8,7c0,1.8,0.5,3.5,1.4,4.8
					c-5,7.3-1.4,13-1.4,13c-0.4,3-37.9,14.1-67.1,43.8c-10.9,11.1-16.3,25.3-18.7,38.8v-18.6h-0.1l9.4-21.6h-11v-75.2l7.5-10.6
					h-10.5v-42l6.3-5.5h-12.1v-29.7c1.3-1.8,2.9-3.7,4.7-5c3.9-2.7,5.4-4.9,5.4-10.1c0-5.2-3.4-7.5-7-9.7c-1.2-0.7-2.2-1.6-3-2.5
					v-20.9c0.2,0,0.5,0.1,0.7,0.1c4.5,0,8.5-2.6,10.5-6.3c-1.9,1.6-4.4,2.6-7.1,2.6c-6.1,0-11.1-5-11.1-11.1c0-3.5,1.7-6.7,4.3-8.7
					c-5,1.5-8.6,6-8.6,11.5c0,4.7,2.7,8.7,6.6,10.7V593c-0.8,0.8-1.8,1.7-3,2.5c-3.7,2.2-7,4.5-7,9.7c0,5.2,1.5,7.4,5.4,10.1
					c1.8,1.3,3.4,3.2,4.7,5V650h-12.1l6.3,5.5v42h-10.5l7.5,10.6v75.2h-11l9.4,21.6v23.9c-19.9-19.7-44.9-27.1-45.1-29.2
					c0,0,2.5-3.9-0.9-8.9c0.6-0.9,0.9-2,0.9-3.3c0-2.2-1.1-4.1-2.6-4.8c1.5-0.4,2.6-1.2,2.6-2.3c0-1.1-1.2-2-2.9-2.3v-3.1
					c3.3-0.2,6.1-2.1,7.6-4.8c-1.5,1.2-3.4,2-5.5,2c-4.8,0-8.6-3.9-8.6-8.6c0-2.7,1.3-5.2,3.3-6.7c-3.9,1.1-6.7,4.7-6.7,8.9
					c0,4.6,3.3,8.3,7.6,9.2v3.2c-1.6,0.3-2.9,1.2-2.9,2.3c0,1.1,1.1,1.9,2.6,2.3c-1.5,0.7-2.6,2.6-2.6,4.8c0,1.3,0.4,2.4,0.9,3.3
					c-3.4,5-0.9,8.9-0.9,8.9c-0.3,2.1-26,9.7-46.1,30.1c-14.5,14.8-14.7,37.5-13.7,48.9h-3.9h-2.8v-25.2h-0.1l8-18.4h-9.4v-63.8
					l6.4-9h-8.9v-35.7l5.4-4.7h-10.2v-25.2c1.1-1.5,2.5-3.2,4-4.2c3.3-2.3,4.6-4.1,4.6-8.5c0-4.4-2.8-6.4-6-8.3
					c-1-0.6-1.9-1.4-2.6-2.1v-17.8c0.2,0,0.4,0.1,0.6,0.1c3.9,0,7.2-2.2,8.9-5.3c-1.6,1.4-3.7,2.2-6,2.2c-5.2,0-9.4-4.2-9.4-9.4
					c0-3,1.4-5.7,3.6-7.4c-4.2,1.3-7.3,5.1-7.3,9.7c0,4,2.3,7.4,5.6,9.1v18.8c-0.7,0.7-1.5,1.5-2.6,2.1c-3.1,1.9-6,3.8-6,8.3
					c0,4.4,1.3,6.3,4.6,8.5c1.5,1.1,2.9,2.7,4,4.2v25.2h-10.2l5.4,4.7v35.7h-8.9l6.4,9v63.8h-9.4l8,18.4v25.2h-2.9V906l-0.1,0.1
					h-50.8v-11.4h-11.8v-13.3h5.1v-16.2h-14.1v-43.9h4.5v-5.4h4.5V809H333.7v6.8h6.4v5.4h4.5v43.9h-10.9v-34.5H318v17.2h-13.1v9.2
					h-34.2v-11.5h-18.8v-10.7h-10.8v-17.1h8.2v-10.2H27.7v10.2h8.4v93.4H12.2v16.5H-6V951h-10.5v-12c0-2.1-1-4-2.7-5.2l-4.7-3.2
					v-27.3h-2.8V878h-0.1l8-18.4h-9.4v-63.8l6.4-9h-8.9v-35.7l5.4-4.7h-10.2v-25.2c1.1-1.5,2.5-3.2,4-4.2c3.3-2.3,4.6-4.1,4.6-8.5
					c0-4.4-2.8-6.4-6-8.3c-1-0.6-1.9-1.4-2.6-2.1v-17.8c0.2,0,0.4,0.1,0.6,0.1c3.9,0,7.2-2.2,8.9-5.3c-1.6,1.4-3.7,2.2-6,2.2
					c-5.2,0-9.4-4.2-9.4-9.4c0-3,1.4-5.7,3.6-7.4c-4.2,1.3-7.3,5.1-7.3,9.7c0,4,2.3,7.4,5.6,9.1v18.8c-0.7,0.7-1.5,1.5-2.6,2.1
					c-3.1,1.9-6,3.8-6,8.3c0,4.4,1.3,6.3,4.6,8.5c1.5,1.1,2.9,2.7,4,4.2v25.2h-10.2l5.4,4.7v35.7h-8.9l6.4,9v63.8h-9.4l8,18.4v25.2
					h-2.9v27.3l-4.7,3.2c-1.7,1.2-2.7,3.1-2.7,5.2v42.8v14h42.1H1439v-14V913H1419.5z M926.3,791.3h-4v-25.2h4V791.3z M916.1,686.6
					h8v18.2h-8V686.6z M916.1,713.1h8v19.4h-8V713.1z M913.9,766.1h3.9v25.2h-3.9V766.1z M1054.4,769.4h8v18.2h-8V769.4z
					 M1064.7,849v25.2h-4V849H1064.7z M1054.4,795.9h8v19.4h-8V795.9z M1052.2,849h3.9v25.2h-3.9V849z M355.6,954.6
					c0.6-5.7,9.2-7.9,11.8-10.8c2.6,2.9,11.2,5.1,11.8,10.8c0.7,6.6-2.9,7.8-2.9,7.8v19.4h-17.8v-19.4
					C358.4,962.3,354.8,961.2,355.6,954.6z M391.3,937c0.9-8.5,13.7-11.7,17.5-16c3.8,4.3,16.6,7.5,17.5,16
					c1.1,9.8-4.3,11.5-4.3,11.5v33.3h-26.5v-33.3C395.6,948.5,390.3,946.8,391.3,937z M436.3,954.6c0.6-5.7,9.2-7.9,11.8-10.8
					c2.6,2.9,11.2,5.1,11.8,10.8c0.7,6.6-2.9,7.8-2.9,7.8v19.4h-17.8v-19.4C439.1,962.3,435.6,961.2,436.3,954.6z M687.5,932.9
					c0.4-3.9,6.2-5.4,8-7.3c1.8,1.9,7.6,3.4,8,7.3c0.5,4.5-1.9,5.3-1.9,5.3V956h-6h-6v-17.9C689.4,938.1,687,937.4,687.5,932.9z
					 M661.8,932.9c0.4-3.9,6.2-5.4,8-7.3c1.8,1.9,7.6,3.4,8,7.3c0.5,4.5-1.9,5.3-1.9,5.3V956h-6h-6v-17.9
					C663.8,938.1,661.4,937.4,661.8,932.9z M636.2,932.9c0.4-3.9,6.2-5.4,8-7.3c1.8,1.9,7.6,3.4,8,7.3c0.5,4.5-1.9,5.3-1.9,5.3V956
					h-6h-6v-17.9C638.2,938.1,635.7,937.4,636.2,932.9z M610.6,932.9c0.4-3.9,6.2-5.4,8-7.3c1.8,1.9,7.6,3.4,8,7.3
					c0.5,4.5-1.9,5.3-1.9,5.3V956h-6h-6v-17.9C612.6,938.1,610.1,937.4,610.6,932.9z M585,932.9c0.4-3.9,6.2-5.4,8-7.3
					c1.8,1.9,7.6,3.4,8,7.3c0.5,4.5-1.9,5.3-1.9,5.3V956h-6h-6v-17.9C586.9,938.1,584.5,937.4,585,932.9z M1014.9,932.9
					c0.4-3.9,6.2-5.4,8-7.3c1.8,1.9,7.6,3.4,8,7.3c0.5,4.5-1.9,5.3-1.9,5.3V956h-6h-6v-17.9C1016.8,938.1,1014.4,937.4,1014.9,932.9
					z M989.2,932.9c0.4-3.9,6.2-5.4,8-7.3c1.8,1.9,7.6,3.4,8,7.3c0.5,4.5-1.9,5.3-1.9,5.3V956h-6h-6v-17.9
					C991.2,938.1,988.7,937.4,989.2,932.9z M963.6,932.9c0.4-3.9,6.2-5.4,8-7.3c1.8,1.9,7.6,3.4,8,7.3c0.5,4.5-1.9,5.3-1.9,5.3V956
					h-6h-6v-17.9C965.6,938.1,963.1,937.4,963.6,932.9z M938,932.9c0.4-3.9,6.2-5.4,8-7.3c1.8,1.9,7.6,3.4,8,7.3
					c0.5,4.5-1.9,5.3-1.9,5.3V956h-6h-6v-17.9C939.9,938.1,937.5,937.4,938,932.9z M912.4,932.9c0.4-3.9,6.2-5.4,8-7.3
					c1.8,1.9,7.6,3.4,8,7.3c0.5,4.5-1.9,5.3-1.9,5.3V956h-6h-6v-17.9C914.3,938.1,911.9,937.4,912.4,932.9z M859.2,925.1
					c0.6-5.2,8.3-7.2,10.7-9.8c2.3,2.6,10.1,4.6,10.7,9.8c0.7,6-2.6,7-2.6,7V956h-8.1h-8.1v-23.9
					C861.8,932.1,858.6,931.1,859.2,925.1z M718.1,904.5v-5.2h176.1v5.2H718.1z M828,925.1c0.6-5.2,8.3-7.2,10.7-9.8
					c2.3,2.6,10.1,4.6,10.7,9.8c0.7,6-2.6,7-2.6,7V956h-8.1h-8.1v-23.9C830.6,932.1,827.4,931.1,828,925.1z M796.9,925.1
					c0.6-5.2,8.3-7.2,10.7-9.8c2.3,2.6,10.1,4.6,10.7,9.8c0.7,6-2.6,7-2.6,7V956h-8.1h-8.1v-23.9
					C799.5,932.1,796.2,931.1,796.9,925.1z M765.7,925.1c0.6-5.2,8.3-7.2,10.7-9.8c2.3,2.6,10.1,4.6,10.7,9.8c0.7,6-2.6,7-2.6,7V956
					h-8.1h-8.1v-23.9C768.3,932.1,765,931.1,765.7,925.1z M734.5,925.1c0.6-5.2,8.3-7.2,10.7-9.8c2.3,2.6,10.1,4.6,10.7,9.8
					c0.7,6-2.6,7-2.6,7V956h-8.1h-8.1v-23.9C737.1,932.1,733.9,931.1,734.5,925.1z M718.1,889.2V884h176.1v5.2H718.1z M709.1,829.7
					h-4.7v-24.8h4.7V829.7z M697,711.2h9.4v21.5H697V711.2z M697,742.4h9.4v22.8H697V742.4z M699,804.9v24.8h-4.6v-24.8H699z
					 M564.8,878.6h-4v-25.2h4V878.6z M554.6,773.9h8v18.2h-8V773.9z M554.6,800.4h8v19.4h-8V800.4z M552.4,853.4h3.9v25.2h-3.9
					V853.4z M386,821.2v-5.4h15.2v5.4h4.5v43.9h-24.1v-43.9H386z M436.2,821.2v43.9H412v-43.9h4.5v-5.4h15.2v5.4H436.2z
					 M466.7,821.2v43.9h-24.1v-43.9h4.5v-5.4h15.2v5.4H466.7z M351,821.2h4.5v-5.4h15.2v5.4h4.5v43.9H351V821.2z M249.4,937
					c0.9-8.5,13.7-11.7,17.5-16c3.8,4.3,16.6,7.5,17.5,16c1.1,9.8-4.3,11.5-4.3,11.5v33.3h-26.5v-33.3
					C253.6,948.5,248.3,946.8,249.4,937z M244.7,937c1.1,9.8-4.3,11.5-4.3,11.5v33.3h-26.5v-33.3c0,0-5.3-1.7-4.3-11.5
					c0.9-8.5,13.7-11.7,17.5-16C231,925.2,243.7,928.5,244.7,937z M50.8,937c0.9-8.5,13.7-11.7,17.5-16c3.8,4.3,16.6,7.5,17.5,16
					c1.1,9.8-4.3,11.5-4.3,11.5v33.3H55.1v-33.3C55.1,948.5,49.7,946.8,50.8,937z M55,838.9c0.6-4.4,8.8-6.1,11.3-8.3
					c2.5,2.2,10.7,3.9,11.3,8.3c0.7,5.1-2.8,6-2.8,6v20.3h-8.5h-8.5v-20.3C57.8,844.8,54.3,844,55,838.9z M90.5,838.9
					c0.6-4.4,8.8-6.1,11.3-8.3c2.5,2.2,10.7,3.9,11.3,8.3c0.7,5.1-2.8,6-2.8,6v20.3h-8.5h-8.5v-20.3C93.2,844.8,89.8,844,90.5,838.9
					z M90.5,937c0.9-8.5,13.7-11.7,17.5-16c3.8,4.3,16.6,7.5,17.5,16c1.1,9.8-4.3,11.5-4.3,11.5v33.3H94.8v-33.3
					C94.8,948.5,89.4,946.8,90.5,937z M125.9,838.9c0.6-4.4,8.8-6.1,11.3-8.3c2.5,2.2,10.7,3.9,11.3,8.3c0.7,5.1-2.8,6-2.8,6v20.3
					h-8.5h-8.5v-20.3C128.7,844.8,125.2,844,125.9,838.9z M130.2,937c0.9-8.5,13.7-11.7,17.5-16c3.8,4.3,16.6,7.5,17.5,16
					c1.1,9.8-4.3,11.5-4.3,11.5v33.3h-26.5v-33.3C134.5,948.5,129.1,946.8,130.2,937z M161.3,838.9c0.6-4.4,8.8-6.1,11.3-8.3
					c2.5,2.2,10.7,3.9,11.3,8.3c0.7,5.1-2.8,6-2.8,6v20.3h-8.5h-8.5v-20.3C164.1,844.8,160.7,844,161.3,838.9z M169.9,937
					c0.9-8.5,13.7-11.7,17.5-16c3.8,4.3,16.6,7.5,17.5,16c1.1,9.8-4.3,11.5-4.3,11.5v33.3h-26.5v-33.3
					C174.2,948.5,168.9,946.8,169.9,937z M196.8,838.9c0.6-4.4,8.8-6.1,11.3-8.3c2.5,2.2,10.7,3.9,11.3,8.3c0.7,5.1-2.8,6-2.8,6
					v20.3h-8.5h-8.5v-20.3C199.5,844.8,196.1,844,196.8,838.9z M-41.6,798.5h8v18.2h-8V798.5z M-31.3,878v25.2h-4V878H-31.3z
					 M-41.6,824.9h8v19.4h-8V824.9z M-43.8,878h3.9v25.2h-3.9V878z M-44.7,949.9c0-3.9,3.2-7.1,7.1-7.1s7.1,3.2,7.1,7.1v19.6h-14.2
					V949.9z M1065.5,940.5h-14.2v-19.6c0-3.9,3.2-7.1,7.1-7.1s7.1,3.2,7.1,7.1V940.5z M1202.4,897.8v36h-12.1h-12.1v-36
					c0,0-4.9-1.6-3.9-10.6c0.8-7.8,12.5-10.8,16-14.7c3.5,3.9,15.2,6.9,16,14.7C1207.3,896.3,1202.4,897.8,1202.4,897.8z
					 M1202.6,798v-34.4c0,0-4.7-1.5-3.7-10.1c0.8-7.4,12-10.3,15.3-14c3.4,3.7,14.5,6.6,15.3,14c0.9,8.6-3.7,10.1-3.7,10.1V798
					h-11.6H1202.6z M1251.1,897.8v36H1239h-12.1v-36c0,0-4.9-1.6-3.9-10.6c0.8-7.8,12.5-10.8,16-14.7c3.5,3.9,15.2,6.9,16,14.7
					C1256,896.3,1251.1,897.8,1251.1,897.8z M1298.8,944.3v37.5h-18.3v-37.5c0,0-3.7-1.4-2.9-9.6c0.6-7.1,9.4-9.8,12.1-13.3
					c2.7,3.5,11.4,6.2,12.1,13.3C1302.5,942.9,1298.8,944.3,1298.8,944.3z M1308.1,819.8h8V838h-8V819.8z M1308.1,846.3h8v19.4h-8
					V846.3z M1331.2,944.3v37.5H1313v-37.5c0,0-3.7-1.4-2.9-9.6c0.6-7.1,9.4-9.8,12.1-13.3c2.7,3.5,11.4,6.2,12.1,13.3
					C1334.9,942.9,1331.2,944.3,1331.2,944.3z M1363.7,944.3v37.5h-18.3v-37.5c0,0-3.7-1.4-2.9-9.6c0.6-7.1,9.4-9.8,12.1-13.3
					c2.7,3.5,11.4,6.2,12.1,13.3C1367.4,942.9,1363.7,944.3,1363.7,944.3z M1396.1,944.3v37.5h-18.3v-37.5c0,0-3.7-1.4-2.9-9.6
					c0.6-7.1,9.4-9.8,12.1-13.3c2.7,3.5,11.4,6.2,12.1,13.3C1399.8,942.9,1396.1,944.3,1396.1,944.3z M1428.6,944.3v37.5h-18.3
					v-37.5c0,0-3.7-1.4-2.9-9.6c0.6-7.1,9.4-9.8,12.1-13.3c2.7,3.5,11.4,6.2,12.1,13.3C1432.3,942.9,1428.6,944.3,1428.6,944.3z"/>
			</g>
		</g>
	</g>
	<path fill="#FFFFFF" d="M175.5,179.3c-0.6-0.2-1.2-0.5-1.8-0.7c-0.6-0.2-1.4-0.1-1.9,0.3c-0.8,0.4-1.2,1.3-1.2,2.1
		c0,0.7,0.3,1.3,0.7,1.8c0.6,0.6,1.6,1,2.4,0.6c0.6-0.2,1.2-0.5,1.8-0.7c0.7-0.3,1.3-0.8,1.3-1.7S176.2,179.6,175.5,179.3z"/>
	<path fill="#FFFFFF" d="M351,75.7c-2.6,0-4.1,2.8-2.9,5c0.3,0.5,0.6,1,0.8,1.5c0.9,1.5,3.2,1.5,4,0c0.3-0.5,0.6-1,0.8-1.5
		C355.1,78.5,353.6,75.7,351,75.7z"/>
	<path fill="#FFFFFF" d="M480.4,181c-0.7-1.2-2-1.9-3.4-1.9s-2.7,0.7-3.4,1.9c-0.7,1.1-0.8,2.8,0,3.9c0.3,0.5,0.6,1,1,1.4
		c1.2,1.8,3.6,1.8,4.8,0c0.3-0.5,0.6-1,1-1.4C481.1,183.8,481,182.2,480.4,181z"/>
	<path fill="#FFFFFF" d="M709,128.3c-3.5,0-3.5,5.4,0,5.4S712.5,128.3,709,128.3z"/>
	<path fill="#FFFFFF" d="M113,64.9c-2.7,0-2.7,4.2,0,4.2S115.7,64.9,113,64.9z"/>
	<path fill="#FFFFFF" d="M45,265.3c-4.7,0-4.7,7.3,0,7.3S49.7,265.3,45,265.3z"/>
	<path fill="#FFFFFF" d="M317.9,333.4c-0.1,0-0.1-0.1-0.2-0.1c-0.5-0.5-1.2-0.8-2-0.9c-0.3,0-0.5,0-0.8,0.1
		c-0.7,0.1-1.3,0.2-1.8,0.7c-0.5,0.5-0.7,1.1-0.7,1.8s0.3,1.3,0.7,1.8c0.5,0.5,1.1,0.7,1.8,0.7c0.3,0,0.5,0.1,0.8,0.1
		c0.8-0.1,1.5-0.4,2-0.9c0.1,0,0.1-0.1,0.2-0.1C319.1,335.9,319.1,334.1,317.9,333.4z"/>
	<path fill="#FFFFFF" d="M381,250.7c-3,0-3,4.7,0,4.7S384,250.7,381,250.7z"/>
	<path fill="#FFFFFF" d="M646.1,327.2c-2.1-0.6-4.3,0.7-4.9,2.8c-0.3,1-0.1,2.2,0.4,3.1c0.2,0.4,0.6,0.8,1,1.2
		c0,0.1,0.1,0.1,0.1,0.2c0.4,0.8,1.5,1.3,2.3,1.3s2-0.5,2.3-1.3c0-0.1,0.1-0.2,0.1-0.2c0.7-0.5,1.2-1.3,1.4-2.1
		C649.4,330,648.2,327.7,646.1,327.2z"/>
	<path fill="#FFFFFF" d="M588.2,492.6c-0.8-0.5-1.9-0.5-2.8-0.1c-0.4,0.1-0.7,0.1-1.1,0.2c-1.1,0.2-1.8,1.4-1.8,2.4s0.7,2.2,1.8,2.4
		c0.4,0.1,0.8,0.1,1.2,0.2c0.6,0.3,1.4,0.4,2,0.2c1.2-0.3,2.1-1.5,2.1-2.7C589.6,494,589.1,493.1,588.2,492.6z"/>
	<path fill="#FFFFFF" d="M403.8,439.4c-0.6-1-1.7-1.6-2.8-1.6s-2.2,0.6-2.8,1.6c-0.6,1-0.5,2.2,0,3.3c0.3,0.5,0.5,1,0.8,1.5
		c0.8,1.5,3.2,1.5,4,0c0.3-0.5,0.5-1,0.8-1.5C404.3,441.6,404.4,440.4,403.8,439.4z"/>
	<path fill="#FFFFFF" d="M95.9,477.5c-0.5-0.3-1-0.5-1.6-0.8c-0.9-0.4-1.8-0.5-2.6,0c-0.8,0.5-1.3,1.3-1.3,2.3s0.5,1.8,1.3,2.3
		c0.9,0.5,1.8,0.4,2.6,0c0.5-0.3,1-0.5,1.6-0.8C97,479.9,97,478.1,95.9,477.5z"/>
	<path fill="#FFFFFF" d="M313,561.3c-4.8,0-4.8,7.4,0,7.4S317.8,561.3,313,561.3z"/>
	<path fill="#FFFFFF" d="M69.4,619.4l-1.8-0.7c-1.5-0.5-3,0.8-3,2.3c0,1.4,1.5,2.8,3,2.3c0.6-0.2,1.2-0.5,1.8-0.7
		C71,622,71,620,69.4,619.4z"/>
	<path fill="#FFFFFF" d="M879,308.6c-0.2-0.4-0.5-0.7-0.8-1c-0.5-1.3-1.7-2.2-3.3-2.2c-1.6,0-2.7,1-3.3,2.3c-0.9,0.8-1.4,2-1.4,3.3
		c0,2.6,2.1,4.7,4.7,4.7c2.1,0,4-1.4,4.5-3.4C879.9,311,879.7,309.7,879,308.6z"/>
	<path fill="#FFFFFF" d="M829.4,467.4c-0.6-0.3-1.2-0.4-1.9-0.5c-0.6-0.1-1.1-0.1-1.7,0.2c-0.7,0.4-1.1,1.1-1.1,1.9
		c0,0.6,0.2,1.1,0.6,1.5c0.6,0.6,1.3,0.7,2.1,0.6c0.7-0.1,1.3-0.2,1.9-0.5c0.7-0.3,1.2-0.8,1.2-1.6
		C830.7,468.2,830.2,467.7,829.4,467.4z"/>
	<path fill="#FFFFFF" d="M979,583.4c-4.7,0-4.7,7.2,0,7.2S983.7,583.4,979,583.4z"/>
	<path fill="#FFFFFF" d="M1156.4,643.5c-0.7-2.4-2.9-4.1-5.4-4.1c-2,0-3.8,1.1-4.8,2.8c-1.3,2.2-0.9,5,0.9,6.8c1.1,1.1,2.3,2,3.9,2
		s2.8-0.9,3.9-2C1156.4,647.5,1156.9,645.4,1156.4,643.5z"/>
	<path fill="#FFFFFF" d="M1251,469.9c-4.1,0-4.1,6.3,0,6.3S1255.1,469.9,1251,469.9z"/>
	<path fill="#FFFFFF" d="M1087,404.5c-3.3,0-3.3,5.1,0,5.1S1090.3,404.5,1087,404.5z"/>
	<path fill="#FFFFFF" d="M1061.3,198.7c-1.2-1.2-2.9-1.6-4.5-1.2c-1.6,0.4-2.8,1.7-3.2,3.2c-0.1,0.4-0.3,0.8-0.4,1.3
		c-0.8,2.8,2,5.6,4.8,4.8c0.4-0.1,0.8-0.3,1.3-0.4c1.5-0.5,2.8-1.6,3.2-3.2C1062.9,201.6,1062.5,199.8,1061.3,198.7z"/>
	<path fill="#FFFFFF" d="M931,104.1c-3.7,0-3.7,5.8,0,5.8S934.7,104.1,931,104.1z"/>
	<path fill="#FFFFFF" d="M1195,37.7c-4.2,0-4.2,6.6,0,6.6S1199.2,37.7,1195,37.7z"/>
	<path fill="#FFFFFF" d="M789,47.1c-2.5,0-2.5,3.8,0,3.8S791.5,47.1,789,47.1z"/>
	<path fill="#FFFFFF" d="M585,102.7c-5.5,0-5.5,8.5,0,8.5S590.5,102.7,585,102.7z"/>
	<path fill="#FFFFFF" d="M1357.2,83.6c-0.2-0.8-0.6-1.4-1.1-2c-0.7-0.7-2-1.4-3.1-1.3c0,0.1-0.1,0.2-0.2,0.1c-0.3,0-0.5-0.1-0.8-0.1
		c-0.3,0-0.7,0-1,0.1c-0.6,0.1-1.2,0.5-1.6,0.9c-0.6,0.5-0.8,1.3-0.7,2.1c-0.1,0.4-0.2,0.9-0.2,1.4c0,1.2,0.5,2.3,1.3,3.1
		c0.8,0.8,2,1.3,3.1,1.3c1.3,0,2.2-0.5,3.1-1.3c0,0,0.1,0,0.1-0.1C1357.3,87,1357.6,85,1357.2,83.6z"/>
	<path fill="#FFFFFF" d="M1358.3,245c-0.1-0.9-0.3-1.6-1-2.3c-0.6-0.6-1.5-1-2.3-1s-1.7,0.3-2.3,1c-0.7,0.7-0.8,1.4-1,2.3
		c-0.1,0.8-0.1,1.7,0.4,2.5l0.6,0.9c1.2,1.7,3.4,1.7,4.6,0l0.6-0.9C1358.4,246.7,1358.4,245.8,1358.3,245z"/>
	<path fill="#FFFFFF" d="M1362.6,499c-0.7-1.5-2.9-2.4-4.5-1.8c-0.9,0.4-1.8,0.7-2.6,1.4c-1.2,1.2-1.4,2.6-1.6,4.1
		c-0.2,1.4-0.4,2.8-0.3,4.2c0.2,2.8,3.4,4.3,5.5,2.3c1.1-1,1.9-2.3,2.7-3.5c0.6-0.8,1-1.6,1.4-2.6
		C1363.9,501.7,1363.2,500.3,1362.6,499z"/>
	<path fill="#FFFFFF" d="M1139,512.5c-3.3,0-3.3,5.1,0,5.1S1142.3,512.5,1139,512.5z"/>
	<path fill="#FFFFFF" d="M337,690.5c-3.2,0-3.2,5,0,5S340.2,690.5,337,690.5z"/>
	<path fill="#FFFFFF" d="M205,308.4c-3.3,0-3.3,5.2,0,5.2S208.3,308.4,205,308.4z"/>
	<path fill="#FFFFFF" d="M269.1,455.2l-0.2-0.7c-0.5-1.9-3.4-1.9-3.9,0l-0.2,0.7c-1.6,1.7-0.2,4.6,2.1,4.6S270.7,456.9,269.1,455.2z
		"/>
	<path fill="#FFFFFF" d="M783,266.2c-1.7,0-3.3,1.8-2.7,3.6c0.3,0.8,0.5,1.6,1,2.2c0.4,0.6,0.9,1,1.7,1s1.3-0.4,1.7-1
		c0.5-0.7,0.7-1.5,1-2.2C786.3,268,784.7,266.2,783,266.2z"/>
	<path fill="#FFFFFF" d="M583.5,234c0-0.3,0-0.7-0.1-1c-0.1-1.3-1.1-2.4-2.4-2.4s-2.4,1.1-2.4,2.4c0,0.3,0,0.7-0.1,1
		c-0.5,1.6,0.7,3.4,2.5,3.4S584,235.6,583.5,234z"/>
	<path fill="#FFFFFF" d="M1052.9,82.3c-0.5-1.2-1.7-2.1-3-2.1c-0.2,0-0.2,0-0.3,0c-0.1,0-0.3-0.1-0.4-0.1c-0.4-0.1-0.8-0.3-1.2-0.4
		c-1.5-0.5-3.2,0.6-3.6,2.1c-0.5,1.7,0.6,3.1,2.1,3.6c0.3,0.1,0.6,0.2,0.9,0.3c0.1,0.1,0.3,0.1,0.4,0.2c1.1,0.9,2.4,1,3.5,0.4
		c0,0,0.1,0,0.1,0c1,0,2-0.7,2.3-1.7C1053.9,83.7,1053.5,82.9,1052.9,82.3z"/>
</g>
<g id="Designed_by_Vecteezy">
	<g>
		<g>
			<g>
				<path fill="#FFFFFF" d="M732.3,937.7c0.8,0,1.6,0.7,1.6,0.7L720,968.2c-1.5,0-5.2,0.2-6.1,0.2c-0.8,0-1.6-0.7-1.6-0.7l-4.8-29.8
					c2.9,0,6.5-0.2,7.6-0.2c0.8,0,1.6,0.7,1.6,0.7l1.5,14.6c0.1,1.3,0.1,3,0.1,4.8c0.5-2,1-3.9,1.5-5.2l5.8-14.7
					C728.1,937.9,731.3,937.7,732.3,937.7L732.3,937.7z"/>
			</g>
			<g>
				<path fill="#FFFFFF" d="M746.6,952.4c0,3.2-1.8,5.4-6.3,6.3l-4.7,1c0.4,2,1.6,3,3.8,3c2.6,0,4.4-2,4.4-2s1.3,0.7,1.3,2.3
					c0,2.7-4.1,5.6-9,5.6c-4.9,0-8.1-3.1-8.1-8.3c0-6,4.3-14.2,11.9-14.2C744,946.1,746.6,948.6,746.6,952.4L746.6,952.4z
					 M738.6,955.5c1-0.3,1.3-1.2,1.3-2.1c0-0.9-0.3-2.2-1.3-2.2c-1.9,0-2.7,3-3,5.3L738.6,955.5z"/>
			</g>
			<g>
				<path fill="#FFFFFF" d="M759.4,946.1c3.8,0,6.7,2,6.7,4.7c0,3.3-4,4.5-4,4.5s-1.2-3.6-3.9-3.6c-1.8,0-2.9,1.8-2.9,5.8
					c0,3.6,1,5.2,3.3,5.2c2.4,0,3.9-1.6,3.9-1.6s1.3,0.7,1.3,2.2c0,2.6-4,5.3-8.6,5.3c-4.9,0-8-3.1-8-8.2
					C747.3,954.3,751.7,946.1,759.4,946.1L759.4,946.1z"/>
			</g>
			<g>
				<path fill="#FFFFFF" d="M777.8,941.3c0.9,0,1.5,0.7,1.5,0.7l-0.7,4.5h4.8l-1.1,3.5c-0.4,1.1-0.9,1.7-2,1.7h-2.5l-1.4,8.9
					c-0.2,1.4,0.1,2.1,1.1,2.1c0.9,0,1.8-0.5,1.8-0.5s1.3,0.7,1.3,2.2c0,2.2-3.1,4.3-7,4.3c-4.1,0-5.8-2.5-5.1-7l1.6-9.9h-2.6
					l1.1-3.6c0.3-0.9,1.1-1.6,2-1.6h1.3l1.5-4.2C775.2,941.9,777,941.3,777.8,941.3L777.8,941.3z"/>
			</g>
			<g>
				<path fill="#FFFFFF" d="M801.2,952.4c0,3.2-1.8,5.4-6.3,6.3l-4.7,1c0.4,2,1.6,3,3.8,3c2.6,0,4.4-2,4.4-2s1.3,0.7,1.3,2.3
					c0,2.7-4.1,5.6-9,5.6c-4.9,0-8.1-3.1-8.1-8.3c0-6,4.3-14.2,11.9-14.2C798.6,946.1,801.2,948.6,801.2,952.4L801.2,952.4z
					 M793.2,955.5c1-0.3,1.3-1.2,1.3-2.1c0-0.9-0.3-2.2-1.3-2.2c-1.9,0-2.7,3-3,5.3L793.2,955.5z"/>
			</g>
			<g>
				<path fill="#FFFFFF" d="M820.5,952.4c0,3.2-1.8,5.4-6.3,6.3l-4.7,1c0.4,2,1.6,3,3.8,3c2.6,0,4.4-2,4.4-2s1.3,0.7,1.3,2.3
					c0,2.7-4.1,5.6-9,5.6c-4.9,0-8.1-3.1-8.1-8.3c0-6,4.3-14.2,11.9-14.2C817.9,946.1,820.5,948.6,820.5,952.4L820.5,952.4z
					 M812.5,955.5c1-0.3,1.3-1.2,1.3-2.1c0-0.9-0.3-2.2-1.3-2.2c-1.9,0-2.7,3-3,5.3L812.5,955.5z"/>
			</g>
			<g>
				<path fill="#FFFFFF" d="M836.3,960.5c0,0,1.6,1.5,1.6,4c0,3.3-2.8,4.2-5.2,4.2c-3.1,0-5.3-1.5-7.6-2.3c-0.6,0.7-1.3,1.5-1.9,2.3
					c0,0-3.5-0.1-3.5-2.4c0-2.9,4.8-7.8,9.9-13.4c-0.6-0.1-1.2-0.2-1.7-0.2c-2.9,0-4.1,1.5-4.1,1.5s-1.5-1.7-1.4-4
					c0.2-3.1,3.1-4,5.5-4c2.5,0,4.3,1,6.1,1.7l1.5-1.7c0,0,3.5,0.1,3.5,2.5c0,2.8-4.6,7.6-9.6,13c1.1,0.3,2,0.5,3,0.5
					C835.1,962.2,836.3,960.5,836.3,960.5L836.3,960.5z"/>
			</g>
			<g>
				<path fill="#FFFFFF" d="M858.7,966.7c-1.2,7.6-6.4,11.4-13,11.4c-4.2,0-7.3-2.2-7.3-4.8c0-1.7,1.4-2.5,1.4-2.5s1.4,1.3,4.2,1.3
					c2.6,0,6.2-1.1,6.8-5.1l0.5-3.1c-1.8,2.6-4.1,4.6-7.1,4.6c-3.3,0-4.8-2.7-3.9-8.3l0.9-6c0.6-3.7,0.7-6.7,0.7-6.7
					c2.4-0.4,5.5-1.5,6.6-1.5c0.8,0,1.6,0.7,1.6,0.7l-1.2,7.5l-1.1,6.9c-0.1,0.6,0,1,0.6,1c2.8,0,4.3-7.9,4.3-7.9
					c0.6-3.7,0.7-6.7,0.7-6.7c2.4-0.4,5.5-1.5,6.6-1.5c0.9,0,1.6,0.7,1.6,0.7l-1.2,7.5L858.7,966.7z"/>
			</g>
		</g>
		<g>
			<path fill="#FFFFFF" d="M538.1,947.4h7.4c1.7,0,3,0.1,3.8,0.4c1.2,0.3,2.2,1,3,1.9c0.8,0.9,1.5,2,1.9,3.3
				c0.4,1.3,0.7,2.9,0.7,4.8c0,1.7-0.2,3.1-0.6,4.3c-0.5,1.5-1.2,2.7-2.2,3.6c-0.7,0.7-1.7,1.2-2.9,1.6c-0.9,0.3-2.1,0.4-3.6,0.4
				h-7.7V947.4z M542.2,950.8v13.4h3c1.1,0,2-0.1,2.5-0.2c0.7-0.2,1.2-0.4,1.6-0.8c0.4-0.4,0.8-1,1.1-1.9c0.3-0.9,0.4-2.1,0.4-3.7
				s-0.1-2.8-0.4-3.6s-0.7-1.5-1.2-2c-0.5-0.5-1.1-0.8-1.9-0.9c-0.6-0.1-1.7-0.2-3.3-0.2H542.2z"/>
			<path fill="#FFFFFF" d="M566.4,962.9l3.9,0.6c-0.5,1.4-1.3,2.5-2.3,3.2s-2.4,1.1-4,1.1c-2.5,0-4.4-0.8-5.6-2.5
				c-1-1.3-1.4-3-1.4-5c0-2.4,0.6-4.3,1.9-5.7c1.3-1.4,2.9-2.1,4.8-2.1c2.2,0,3.9,0.7,5.1,2.2c1.3,1.4,1.9,3.6,1.8,6.6h-9.7
				c0,1.1,0.3,2,0.9,2.7c0.6,0.6,1.3,1,2.2,1c0.6,0,1.1-0.2,1.5-0.5C565.8,964.1,566.2,963.6,566.4,962.9z M566.6,959
				c0-1.1-0.3-2-0.9-2.6c-0.6-0.6-1.2-0.9-2-0.9c-0.8,0-1.5,0.3-2.1,0.9c-0.6,0.6-0.8,1.4-0.8,2.5H566.6z"/>
			<path fill="#FFFFFF" d="M571.6,963.4l3.9-0.6c0.2,0.8,0.5,1.3,1,1.7c0.5,0.4,1.2,0.6,2.1,0.6c1,0,1.8-0.2,2.3-0.6
				c0.3-0.3,0.5-0.6,0.5-1c0-0.3-0.1-0.5-0.3-0.7c-0.2-0.2-0.6-0.4-1.3-0.5c-3.1-0.7-5.1-1.3-5.9-1.9c-1.2-0.8-1.7-1.9-1.7-3.3
				c0-1.3,0.5-2.3,1.5-3.2c1-0.9,2.6-1.3,4.7-1.3c2,0,3.5,0.3,4.5,1c1,0.7,1.6,1.6,2,2.9l-3.6,0.7c-0.2-0.6-0.5-1-0.9-1.3
				c-0.4-0.3-1.1-0.5-1.9-0.5c-1,0-1.7,0.1-2.2,0.4c-0.3,0.2-0.4,0.5-0.4,0.8c0,0.3,0.1,0.5,0.4,0.7c0.3,0.3,1.6,0.6,3.6,1.1
				c2.1,0.5,3.5,1,4.3,1.7c0.8,0.7,1.2,1.6,1.2,2.9c0,1.3-0.6,2.5-1.7,3.5c-1.1,1-2.8,1.4-5,1.4c-2,0-3.6-0.4-4.7-1.2
				C572.8,965.8,572,964.7,571.6,963.4z"/>
			<path fill="#FFFFFF" d="M588.1,950.9v-3.6h3.9v3.6H588.1z M588.1,967.5v-14.6h3.9v14.6H588.1z"/>
			<path fill="#FFFFFF" d="M595,968.5l4.4,0.5c0.1,0.5,0.2,0.9,0.5,1.1c0.4,0.3,0.9,0.4,1.7,0.4c1,0,1.8-0.2,2.3-0.5
				c0.3-0.2,0.6-0.5,0.8-1c0.1-0.3,0.2-0.9,0.2-1.8v-2.1c-1.2,1.6-2.6,2.4-4.4,2.4c-2,0-3.5-0.8-4.7-2.5c-0.9-1.3-1.3-2.9-1.3-4.9
				c0-2.4,0.6-4.3,1.8-5.6c1.2-1.3,2.6-1.9,4.4-1.9c1.8,0,3.3,0.8,4.5,2.4v-2.1h3.6V966c0,1.7-0.1,3-0.4,3.9s-0.7,1.5-1.2,2
				c-0.5,0.5-1.2,0.9-2.1,1.1c-0.9,0.3-1.9,0.4-3.3,0.4c-2.5,0-4.2-0.4-5.3-1.3c-1-0.8-1.6-1.9-1.6-3.2
				C595,968.8,595,968.7,595,968.5z M598.5,959.9c0,1.6,0.3,2.7,0.9,3.4c0.6,0.7,1.3,1.1,2.2,1.1c0.9,0,1.7-0.4,2.4-1.1
				c0.7-0.7,1-1.8,1-3.3c0-1.5-0.3-2.6-0.9-3.4c-0.6-0.7-1.4-1.1-2.4-1.1c-0.9,0-1.7,0.4-2.3,1.1
				C598.8,957.3,598.5,958.4,598.5,959.9z"/>
			<path fill="#FFFFFF" d="M625.3,967.5h-3.9v-7.5c0-1.6-0.1-2.6-0.2-3.1c-0.2-0.5-0.4-0.8-0.8-1.1c-0.4-0.3-0.8-0.4-1.3-0.4
				c-0.7,0-1.3,0.2-1.8,0.6c-0.5,0.4-0.9,0.9-1.1,1.5c-0.2,0.6-0.3,1.7-0.3,3.4v6.6H612v-14.6h3.6v2.1c1.3-1.7,2.9-2.5,4.8-2.5
				c0.9,0,1.6,0.2,2.3,0.5c0.7,0.3,1.2,0.7,1.6,1.2c0.4,0.5,0.6,1,0.8,1.6c0.1,0.6,0.2,1.5,0.2,2.6V967.5z"/>
			<path fill="#FFFFFF" d="M637.2,962.9l3.9,0.6c-0.5,1.4-1.3,2.5-2.3,3.2s-2.4,1.1-4,1.1c-2.5,0-4.4-0.8-5.6-2.5
				c-1-1.3-1.4-3-1.4-5c0-2.4,0.6-4.3,1.9-5.7c1.3-1.4,2.9-2.1,4.8-2.1c2.2,0,3.9,0.7,5.1,2.2c1.3,1.4,1.9,3.6,1.8,6.6h-9.7
				c0,1.1,0.3,2,0.9,2.7c0.6,0.6,1.3,1,2.2,1c0.6,0,1.1-0.2,1.5-0.5C636.6,964.1,636.9,963.6,637.2,962.9z M637.4,959
				c0-1.1-0.3-2-0.9-2.6c-0.6-0.6-1.2-0.9-2-0.9c-0.8,0-1.5,0.3-2.1,0.9c-0.6,0.6-0.8,1.4-0.8,2.5H637.4z"/>
			<path fill="#FFFFFF" d="M657.2,967.5h-3.6v-2.1c-0.6,0.8-1.3,1.5-2.1,1.9c-0.8,0.4-1.6,0.6-2.5,0.6c-1.7,0-3.1-0.7-4.3-2
				c-1.2-1.4-1.8-3.2-1.8-5.7c0-2.5,0.6-4.4,1.7-5.7c1.2-1.3,2.6-1.9,4.4-1.9c1.6,0,3,0.7,4.2,2v-7.3h3.9V967.5z M646.9,959.9
				c0,1.6,0.2,2.7,0.6,3.4c0.6,1,1.5,1.5,2.6,1.5c0.9,0,1.6-0.4,2.3-1.1c0.6-0.8,0.9-1.9,0.9-3.4c0-1.7-0.3-2.9-0.9-3.6
				c-0.6-0.7-1.4-1.1-2.3-1.1c-0.9,0-1.7,0.4-2.3,1.1C647.2,957.4,646.9,958.5,646.9,959.9z"/>
			<path fill="#FFFFFF" d="M667.6,967.5v-20.2h3.9v7.3c1.2-1.4,2.6-2,4.2-2c1.8,0,3.3,0.6,4.4,1.9c1.2,1.3,1.7,3.1,1.7,5.6
				c0,2.5-0.6,4.4-1.8,5.8c-1.2,1.3-2.6,2-4.3,2c-0.8,0-1.7-0.2-2.5-0.6c-0.8-0.4-1.5-1-2.1-1.9v2.1H667.6z M671.4,959.9
				c0,1.5,0.2,2.6,0.7,3.4c0.7,1,1.6,1.5,2.7,1.5c0.9,0,1.6-0.4,2.2-1.1c0.6-0.7,0.9-1.9,0.9-3.4c0-1.7-0.3-2.9-0.9-3.6
				c-0.6-0.7-1.4-1.1-2.3-1.1c-0.9,0-1.7,0.4-2.3,1.1C671.7,957.3,671.4,958.4,671.4,959.9z"/>
			<path fill="#FFFFFF" d="M682.6,952.9h4.1l3.5,10.4l3.4-10.4h4l-5.2,14.1l-0.9,2.5c-0.3,0.9-0.7,1.5-1,2c-0.3,0.4-0.7,0.8-1.1,1.1
				c-0.4,0.3-0.9,0.5-1.5,0.7c-0.6,0.2-1.2,0.2-2,0.2c-0.7,0-1.5-0.1-2.2-0.2l-0.3-3c0.6,0.1,1.2,0.2,1.6,0.2c0.9,0,1.6-0.3,2-0.8
				c0.4-0.5,0.8-1.2,1-2L682.6,952.9z"/>
		</g>
	</g>
</g>
</svg>
